# xmcd
# Track frame offsets:
# 150
# 11890
# 34206
# 53240
# 65482
# 87059
# 101713
# 114451
# 128729
# 142595
# 157143
# 179841
# 200088
# 215369
# 247277
# 264556
# 293504
#
# Disc length: 4406 seconds
# Revision: 0
# Processed by: cddbd v1.5.2PL0 Copyright (c) Steve Scherf et al.
# Submitted via: VisiTrax 2.10.3.257 - For more info visit www.synapsa.com
#
DISCID=03113411
DTITLE=Eric Clapton - Crossroads - disc 2
DYEAR=1988
DGENRE=Música Internacional
TTITLE0=Cream - Anyone For Tennis
TTITLE1=Cream - White Room
TTITLE2=Cream - Crossroads
TTITLE3=Cream - Badge
TTITLE4=Blind Faith - Presence of The Lord
TTITLE5=Blind Faith - Can't Find My Way Home
TTITLE6=Blind Faith - Sleeping In The Ground
TTITLE7=Delaney and Bonnie - Comin' Home
TTITLE8=Eric Clapton - Blues Power
TTITLE9=Eric Clapton - After Midnight
TTITLE10=Eric Clapton - Let It Rain
TTITLE11=Derek and The Dominos - Tell The Truth
TTITLE12=Derek and The Dominos - Roll It Over
TTITLE13=Derek and The Dominos - Layla
TTITLE14=Eric Clapton and Duane Allman - Mean Old World
TTITLE15=Derek and The Dominos - Key To The Highway
TTITLE16=Derek and The Dominos - Crossroads
EXTD=
EXTT0=
EXTT1=
EXTT2=
EXTT3=
EXTT4=
EXTT5=
EXTT6=
EXTT7=
EXTT8=
EXTT9=
EXTT10=
EXTT11=
EXTT12=
EXTT13=
EXTT14=
EXTT15=
EXTT16=
PLAYORDER=
